<svg id="visual" viewBox="0 0 900 600" width="900" height="600" xmlns="http://www.w3.org/2000/svg" xmlns:xlink="http://www.w3.org/1999/xlink" version="1.1"><path d="M0 31L37.5 28C75 25 150 19 225 21C300 23 375 33 450 37C525 41 600 39 675 36C750 33 825 29 862.5 27L900 25L900 0L862.5 0C825 0 750 0 675 0C600 0 525 0 450 0C375 0 300 0 225 0C150 0 75 0 37.5 0L0 0Z" fill="#e36129"></path><path d="M0 73L37.5 68C75 63 150 53 225 51C300 49 375 55 450 66C525 77 600 93 675 98C750 103 825 97 862.5 94L900 91L900 23L862.5 25C825 27 750 31 675 34C600 37 525 39 450 35C375 31 300 21 225 19C150 17 75 23 37.5 26L0 29Z" fill="#e6642a"></path><path d="M0 115L37.5 107C75 99 150 83 225 84C300 85 375 103 450 116C525 129 600 137 675 142C750 147 825 149 862.5 150L900 151L900 89L862.5 92C825 95 750 101 675 96C600 91 525 75 450 64C375 53 300 47 225 49C150 51 75 61 37.5 66L0 71Z" fill="#e8682c"></path><path d="M0 229L37.5 212C75 195 150 161 225 155C300 149 375 171 450 189C525 207 600 221 675 242C750 263 825 291 862.5 305L900 319L900 149L862.5 148C825 147 750 145 675 140C600 135 525 127 450 114C375 101 300 83 225 82C150 81 75 97 37.5 105L0 113Z" fill="#eb6b2d"></path><path d="M0 241L37.5 224C75 207 150 173 225 168C300 163 375 187 450 211C525 235 600 259 675 285C750 311 825 339 862.5 353L900 367L900 317L862.5 303C825 289 750 261 675 240C600 219 525 205 450 187C375 169 300 147 225 153C150 159 75 193 37.5 210L0 227Z" fill="#ed6f2f"></path><path d="M0 265L37.5 250C75 235 150 205 225 209C300 213 375 251 450 282C525 313 600 337 675 351C750 365 825 369 862.5 371L900 373L900 365L862.5 351C825 337 750 309 675 283C600 257 525 233 450 209C375 185 300 161 225 166C150 171 75 205 37.5 222L0 239Z" fill="#f07230"></path><path d="M0 307L37.5 292C75 277 150 247 225 248C300 249 375 281 450 312C525 343 600 373 675 387C750 401 825 399 862.5 398L900 397L900 371L862.5 369C825 367 750 363 675 349C600 335 525 311 450 280C375 249 300 211 225 207C150 203 75 233 37.5 248L0 263Z" fill="#f27632"></path><path d="M0 355L37.5 333C75 311 150 267 225 267C300 267 375 311 450 344C525 377 600 399 675 410C750 421 825 421 862.5 421L900 421L900 395L862.5 396C825 397 750 399 675 385C600 371 525 341 450 310C375 279 300 247 225 246C150 245 75 275 37.5 290L0 305Z" fill="#f57933"></path><path d="M0 457L37.5 434C75 411 150 365 225 365C300 365 375 411 450 440C525 469 600 481 675 482C750 483 825 473 862.5 468L900 463L900 419L862.5 419C825 419 750 419 675 408C600 397 525 375 450 342C375 309 300 265 225 265C150 265 75 309 37.5 331L0 353Z" fill="#f77d35"></path><path d="M0 463L37.5 439C75 415 150 367 225 370C300 373 375 427 450 462C525 497 600 513 675 511C750 509 825 489 862.5 479L900 469L900 461L862.5 466C825 471 750 481 675 480C600 479 525 467 450 438C375 409 300 363 225 363C150 363 75 409 37.5 432L0 455Z" fill="#fa8036"></path><path d="M0 505L37.5 479C75 453 150 401 225 399C300 397 375 445 450 479C525 513 600 533 675 535C750 537 825 521 862.5 513L900 505L900 467L862.5 477C825 487 750 507 675 509C600 511 525 495 450 460C375 425 300 371 225 368C150 365 75 413 37.5 437L0 461Z" fill="#fc8437"></path><path d="M0 601L37.5 601C75 601 150 601 225 601C300 601 375 601 450 601C525 601 600 601 675 601C750 601 825 601 862.5 601L900 601L900 503L862.5 511C825 519 750 535 675 533C600 531 525 511 450 477C375 443 300 395 225 397C150 399 75 451 37.5 477L0 503Z" fill="#ff8739"></path></svg>