<svg width="556" height="165" viewBox="0 0 556 165" fill="none" xmlns="http://www.w3.org/2000/svg">
<path fill-rule="evenodd" clip-rule="evenodd" d="M85.1413 32.5478C86.6915 32.4608 88.2461 32.4926 89.7915 32.6428L91.92 32.7827C92.8916 32.9526 93.8758 32.8926 94.7998 33.065C95.9943 33.2874 97.1888 33.3149 98.3231 33.5498C100.076 33.9096 101.799 34.1095 103.442 34.5343C106.07 35.1095 108.662 35.8396 111.205 36.7207C112.174 37.1005 113.138 37.3754 114.084 37.7527C115.587 38.3499 117.047 39.0396 118.484 39.6742L120.174 40.4863L122.789 41.9081C123.715 42.4604 124.629 43.0451 125.528 43.6098C127.393 44.8314 129.191 46.1509 130.915 47.5628C131.666 48.16 132.325 48.8996 133.076 49.4993C133.777 50.0667 134.422 50.7001 135.001 51.3909L136.161 52.5953L138.054 54.7992C139.331 56.4359 140.591 58.105 141.718 59.8917C142.364 60.9136 142.95 61.9781 143.566 63.0326C143.876 63.5648 144.066 64.1395 144.364 64.6568C145.083 65.8762 145.832 67.0631 146.636 68.2025C148.181 70.3939 149.891 72.3979 151.551 74.4669L154.364 77.5428L154.912 78.0751C155.364 78.6262 155.873 79.1287 156.43 79.5743L157.667 80.7612C158.786 81.6583 159.805 82.6628 160.955 83.5424C161.706 84.1121 162.432 84.6968 163.208 85.244L163.912 85.7587L165.289 85.8512C166.176 85.9853 167.054 86.1731 167.919 86.4134C169.536 86.8034 171.018 87.622 172.208 88.7826C173.398 89.9433 174.252 91.4029 174.68 93.0076C175.132 94.6316 175.105 96.3511 174.602 97.9602C172.734 102.303 164.408 101.321 159.745 100.117L157.506 99.5693C156.354 99.2245 155.197 98.9097 154.093 98.5074C153.736 98.3334 153.357 98.2074 152.966 98.1326C152.665 98.588 152.289 98.9893 151.854 99.3195C151.022 100.106 150.109 100.803 149.13 101.398L145.168 121.818L144.605 124.849C144.531 125.527 144.422 126.2 144.277 126.866C143.855 128.526 142.891 130 141.537 131.054C140.684 131.657 139.713 132.072 138.688 132.273C137.951 132.377 137.206 132.409 136.464 132.368H41.7593C38.9328 132.724 36.0621 132.358 33.4155 131.306C32.1483 130.572 31.1663 129.433 30.6284 128.073C30.4597 127.53 30.3291 126.977 30.2377 126.416L29.5491 122.995L26.3237 107.106L25.4949 102.998C25.426 102.376 25.2951 101.764 25.1042 101.169C24.7992 101.005 24.515 100.805 24.2578 100.574C23.2573 99.8927 22.3744 99.0538 21.6435 98.0901C20.5494 98.5386 19.4308 98.9249 18.2929 99.247C17.4465 99.5119 16.5726 99.7193 15.6786 99.9667C12.1728 100.934 6.32809 101.868 2.7772 100.311C2.16126 100.044 1.61255 99.6439 1.17079 99.1392C0.729034 98.6344 0.405279 98.0379 0.222965 97.3929C0.140122 97.0275 0.0823923 96.6568 0.0501786 96.2835C-0.0323873 95.6098 -0.0129724 94.9275 0.107774 94.2595C0.23233 93.3666 0.454866 92.4901 0.771374 91.6458C1.4162 90.2712 2.37316 89.0655 3.56635 88.1243C4.75953 87.1831 6.1561 86.5323 7.64527 86.2235C8.3673 86.0463 9.09887 85.9103 9.83641 85.8162L10.9332 85.7537L11.5593 85.284C12.3255 84.7368 13.0467 84.152 13.783 83.5823C15.0125 82.6278 16.0868 81.5184 17.2888 80.5513L18.5258 79.332C18.8114 79.0759 19.0831 78.8048 19.3397 78.5199L20.1685 77.6928C21.0926 76.5508 22.2119 75.5663 23.1284 74.4119C24.8012 72.303 26.489 70.219 28.0591 67.9901C28.883 66.8232 29.5942 65.5738 30.3304 64.3194L31.019 62.8677L32.4439 60.3839C33.4606 58.7522 34.5299 57.1755 35.6692 55.6663L37.7201 53.165L39.4906 51.2285L40.0215 50.7137C40.3533 50.3117 40.7259 49.9449 41.1333 49.6193C41.6767 49.182 42.135 48.6373 42.6834 48.1975C43.8453 47.268 44.9371 46.2285 46.1591 45.3539C49.7739 42.7229 53.6578 40.4815 57.7459 38.6672C61.5318 37.0482 65.4426 35.7371 69.4402 34.7467C71.2833 34.2794 73.1965 33.9971 75.1222 33.5898C76.7949 33.24 78.5554 33.1975 80.3033 32.9026L81.9009 32.7627L85.1413 32.5478ZM84.5152 37.8452C84.2153 37.9321 83.9223 38.0415 83.6388 38.1725C82.4388 39.1613 81.6469 40.5574 81.4151 42.093C81.2849 42.6078 81.2573 43.1625 81.1647 43.7172C81.0483 44.5633 81.0644 45.4223 81.2123 46.2635C81.5904 48.3574 82.1037 50.6663 84.1872 51.0111C84.7196 50.9632 85.2295 50.7744 85.6644 50.4643C86.0993 50.1543 86.4434 49.734 86.6613 49.247C87.4337 47.7363 87.8559 46.0716 87.8967 44.3762C87.9374 42.6807 87.5957 40.9978 86.8967 39.4519C86.7087 38.9755 86.3805 38.5671 85.9555 38.2803C85.5304 37.9935 85.0283 37.8418 84.5152 37.8452ZM102.528 40.3764L101.949 40.4539C101.539 40.5514 101.158 40.7441 100.837 41.0161C100.462 41.6081 100.281 42.3018 100.319 43.0011C100.356 43.7004 100.611 44.3707 101.048 44.9191C102.439 47.0942 104.499 48.7601 106.92 49.6668C107.603 49.9957 108.353 50.1613 109.111 50.1505C109.869 50.1397 110.614 49.9526 111.287 49.6043C112.597 48.5723 111.65 46.4034 111.007 45.4164C110.082 43.9779 108.834 42.7738 107.362 41.8991C105.891 41.0244 104.236 40.5031 102.528 40.3764ZM66.7533 41.5958L65.967 41.6707C65.4501 41.7687 64.9425 41.9099 64.4495 42.093C62.0363 43.0264 59.9946 44.7207 58.6348 46.9181C58.0338 47.9026 57.1824 50.0441 58.432 51.0261C59.0532 51.3657 59.7465 51.5529 60.4546 51.572C61.1626 51.5911 61.8651 51.4417 62.5037 51.136C65.2218 50.1423 67.4786 48.1856 68.8443 45.6388C69.7458 43.5848 69.3952 41.5733 66.7458 41.5933L66.7533 41.5958ZM34.5349 103.815L38.5415 123.72H136.023L136.446 121.423L137.117 117.883L138.996 108.07L139.824 103.805C139.172 103.803 138.522 103.735 137.884 103.602C136.294 103.351 134.738 102.915 133.249 102.305C130.989 103.32 128.648 104.141 126.249 104.759C125.368 104.984 124.482 105.067 123.525 105.244C121.519 105.577 119.472 105.572 117.467 105.229C116.329 105.043 115.208 104.76 114.117 104.384C112.145 103.628 110.29 102.597 108.608 101.321C107.964 100.836 107.416 100.244 106.792 99.7443L106.199 99.1421L102.175 101.111C100.472 101.861 98.7814 102.64 97.0085 103.345C95.5378 103.901 94.0321 104.36 92.501 104.719C91.6045 104.944 90.6279 105.052 89.6362 105.219L88.3065 105.296H86.9267L85.2665 105.311L83.8116 105.202C82.6946 105.057 81.5867 104.848 80.4936 104.577C78.6693 104.053 76.876 103.427 75.1222 102.703C73.84 102.158 72.598 101.503 71.3484 100.954L67.6523 99.1421L66.7758 100.032L65.962 100.766L64.3643 102.016C62.3825 103.406 60.1571 104.412 57.8034 104.984C53.4709 105.817 48.9913 105.422 44.872 103.845L42.2877 102.845L41.0832 102.298L39.2502 102.97C37.7272 103.488 36.1335 103.77 34.5248 103.805L34.5349 103.815Z" fill="#C84800"/>
<path d="M281.67 127.557V56.0795H303.306V127.557H281.67ZM256.749 102.636V81H328.227V102.636H256.749Z" fill="#C84800"/>
<g clip-path="url(#clip0_186_19)">
<path d="M526.612 38.3775C515.456 22.4293 493.422 17.7021 477.492 27.84L449.519 45.6514C445.739 48.0258 442.495 51.1622 439.997 54.8599C437.499 58.5577 435.802 62.7355 435.012 67.1261C433.678 74.5207 434.851 82.1486 438.346 88.8021C435.951 92.4308 434.317 96.5068 433.544 100.784C432.747 105.263 432.854 109.855 433.857 114.292C434.861 118.729 436.741 122.921 439.388 126.623C450.544 142.573 472.579 147.301 488.507 137.16L516.486 119.349C520.266 116.974 523.508 113.837 526.005 110.14C528.502 106.442 530.199 102.264 530.987 97.8739C532.323 90.4799 531.153 82.8519 527.661 76.1968C530.055 72.5681 531.687 68.4925 532.461 64.2161C533.258 59.7376 533.152 55.145 532.149 50.708C531.146 46.2709 529.265 42.0787 526.618 38.3775" fill="#C84800"/>
<path d="M474.759 128.124C470.356 129.267 465.707 129.033 461.442 127.453C457.176 125.874 453.498 123.025 450.905 119.292C449.314 117.066 448.183 114.546 447.58 111.878C446.976 109.21 446.912 106.449 447.391 103.756C447.553 102.872 447.777 102 448.059 101.147L448.586 99.54L450.02 100.591C453.329 103.021 457.03 104.869 460.962 106.055L462.001 106.37L461.906 107.407C461.779 108.881 462.18 110.352 463.035 111.559C463.816 112.685 464.924 113.544 466.209 114.02C467.495 114.496 468.895 114.567 470.222 114.222C470.829 114.061 471.408 113.808 471.938 113.472L499.916 95.6582C500.601 95.2277 501.188 94.6594 501.641 93.9896C502.094 93.3198 502.402 92.5631 502.545 91.7679C502.689 90.9561 502.669 90.1238 502.487 89.3198C502.305 88.5157 501.965 87.7559 501.486 87.0846C500.705 85.9592 499.597 85.1002 498.311 84.6237C497.026 84.1472 495.626 84.0761 494.299 84.42C493.692 84.5813 493.113 84.8342 492.582 85.17L481.906 91.9682C480.149 93.0832 478.232 93.9236 476.221 94.4604C471.818 95.6037 467.169 95.3698 462.904 93.7904C458.638 92.211 454.96 89.3622 452.367 85.6286C450.775 83.4032 449.644 80.8827 449.041 78.2149C448.437 75.5471 448.373 72.7857 448.852 70.0929C449.328 67.4527 450.349 64.9407 451.852 62.7176C453.355 60.4944 455.306 58.6091 457.581 57.1821L485.562 39.3718C487.318 38.2553 489.235 37.4137 491.247 36.8764C495.65 35.7333 500.298 35.9672 504.564 37.5466C508.829 39.1259 512.507 41.9747 515.1 45.7082C516.692 47.9337 517.823 50.4542 518.426 53.122C519.03 55.7897 519.094 58.551 518.615 61.2439C518.452 62.1278 518.228 62.9994 517.946 63.8529L517.419 65.46L515.986 64.4111C512.677 61.9805 508.977 60.1325 505.045 58.9468L504.004 58.6318L504.101 57.5946C504.227 56.1201 503.827 54.6485 502.972 53.4396C502.191 52.3142 501.083 51.4554 499.798 50.9793C498.513 50.5031 497.112 50.4326 495.785 50.7771C495.178 50.9384 494.6 51.1913 494.069 51.5271L466.084 69.3418C465.399 69.7719 464.812 70.34 464.36 71.0097C463.907 71.6794 463.6 72.436 463.457 73.2311C463.313 74.0429 463.332 74.8753 463.513 75.6796C463.695 76.4839 464.035 77.2439 464.514 77.9154C465.295 79.0407 466.403 79.8995 467.689 80.376C468.974 80.8525 470.374 80.9237 471.701 80.58C472.308 80.4184 472.887 80.1655 473.418 79.83L484.093 73.035C485.849 71.9181 487.767 71.0769 489.778 70.5407C494.181 69.3975 498.829 69.6314 503.095 71.2107C507.36 72.7901 511.038 75.639 513.631 79.3725C515.222 81.5979 516.353 84.1184 516.957 86.7862C517.561 89.454 517.625 92.2153 517.146 94.9082C516.671 97.5483 515.65 100.061 514.149 102.284C512.647 104.508 510.698 106.395 508.425 107.823L480.444 125.628C478.687 126.745 476.77 127.586 474.759 128.124Z" fill="white"/>
</g>
<defs>
<clipPath id="clip0_186_19">
<rect width="100" height="120" fill="white" transform="translate(433 22.5)"/>
</clipPath>
</defs>
</svg>
